<svg version="1.1" xmlns="http://www.w3.org/2000/svg" viewBox="0 0 2172.2402361246677 1194.2222391764303" width="2172.2402361246677" height="1194.2222391764303"><!-- svg-source:excalidraw --><metadata></metadata><defs><style class="style-fonts">
      @font-face { font-family: Virgil; src: url(https://esm.sh/@excalidraw/excalidraw/dist/prod/fonts/Virgil/Virgil-Regular.woff2); }</style></defs><rect x="0" y="0" width="2172.2402361246677" height="1194.2222391764303" fill="#ffffff"></rect><g stroke-linecap="round" transform="translate(558.113184180844 233.65081060500233) rotate(0 172.14285714285722 130.35714285714266)"><path d="M32 0 C114.23 -0.61, 198.29 -1.5, 312.29 0 M32 0 C97.56 2.62, 162.75 1.94, 312.29 0 M312.29 0 C333.03 -0.7, 343 9.53, 344.29 32 M312.29 0 C333.44 0.1, 342.91 10.36, 344.29 32 M344.29 32 C346.22 83.89, 345.93 137.75, 344.29 228.71 M344.29 32 C343.89 102.27, 343.46 172.26, 344.29 228.71 M344.29 228.71 C343.48 250, 335.08 262.12, 312.29 260.71 M344.29 228.71 C342.79 251.87, 331.65 261.91, 312.29 260.71 M312.29 260.71 C233.42 260.88, 153.37 262.55, 32 260.71 M312.29 260.71 C250.96 261.56, 190.49 261.61, 32 260.71 M32 260.71 C11.16 261.71, -1.4 250.45, 0 228.71 M32 260.71 C8.59 262.96, -2.19 248.8, 0 228.71 M0 228.71 C-3.02 174.81, -3.71 124.63, 0 32 M0 228.71 C0.4 165.19, 0.04 100.31, 0 32 M0 32 C-1.23 9.56, 8.8 -0.3, 32 0 M0 32 C1.79 11.5, 12.24 -1.28, 32 0" stroke="#1e1e1e" stroke-width="2" fill="none"></path></g><g transform="translate(664.1060245390331 341.50795346214545) rotate(0 66.15001678466797 22.5)"><text x="66.15001678466797" y="31.716" font-family="Virgil, Segoe UI Emoji" font-size="36px" fill="#1e1e1e" text-anchor="middle" style="white-space: pre;" direction="ltr" dominant-baseline="alphabetic">Website</text></g><g stroke-linecap="round" transform="translate(607.7709222760818 777.5645010811927) rotate(0 118.08035714285734 35.93749999999977)"><path d="M65.27 4.53 C77.97 1.85, 95.97 0.7, 111.83 0.18 C127.69 -0.33, 145.33 -0.28, 160.43 1.45 C175.53 3.18, 191.18 7, 202.42 10.55 C213.67 14.1, 222.28 18.03, 227.9 22.75 C233.51 27.48, 237.01 33.85, 236.13 38.9 C235.24 43.95, 229.88 49, 222.59 53.07 C215.31 57.14, 204.82 60.26, 192.42 63.3 C180.02 66.34, 163.89 70.01, 148.2 71.31 C132.52 72.61, 114.04 71.91, 98.3 71.1 C82.56 70.28, 67.14 69.09, 53.76 66.45 C40.38 63.8, 26.68 59.55, 18.03 55.23 C9.39 50.91, 4.3 45.3, 1.87 40.53 C-0.56 35.75, -0.59 31.05, 3.46 26.57 C7.51 22.08, 15.06 17.52, 26.18 13.62 C37.29 9.73, 62.22 4.92, 70.15 3.2 C78.08 1.49, 73.15 2.87, 73.74 3.34 M153.06 0.17 C168.03 0.94, 184.15 4.59, 195.99 7.88 C207.83 11.18, 217.35 15.42, 224.09 19.95 C230.82 24.49, 235.95 29.87, 236.39 35.11 C236.83 40.35, 233.12 46.84, 226.72 51.38 C220.32 55.93, 209.72 59.27, 197.97 62.37 C186.22 65.48, 171.07 68.45, 156.2 70.02 C141.32 71.58, 124.71 72.24, 108.72 71.77 C92.74 71.3, 74.66 69.69, 60.3 67.19 C45.93 64.7, 31.93 60.45, 22.55 56.79 C13.16 53.13, 7.44 50.05, 4.01 45.24 C0.57 40.43, -0.75 32.99, 1.94 27.92 C4.63 22.84, 10.65 18.64, 20.13 14.81 C29.6 10.97, 44.88 7.19, 58.79 4.9 C72.7 2.62, 87.94 1.47, 103.57 1.11 C119.2 0.76, 144.23 2.59, 152.55 2.78 C160.86 2.98, 154.03 2.07, 153.48 2.28" stroke="#1e1e1e" stroke-width="2" fill="none"></path></g><g stroke-linecap="round" transform="translate(612.9048508475107 737.5198582240491) rotate(0 118.08035714285734 35.93749999999977)"><path d="M74.21 3.12 C87.76 0.91, 107.47 -0.28, 123.55 -0.33 C139.63 -0.38, 156.42 0.68, 170.69 2.8 C184.97 4.92, 199.14 8.56, 209.19 12.37 C219.25 16.19, 226.73 20.92, 231.04 25.69 C235.35 30.46, 237.25 35.93, 235.04 40.99 C232.84 46.06, 226.46 51.92, 217.81 56.07 C209.16 60.23, 196.48 63.37, 183.14 65.93 C169.79 68.49, 153.34 70.61, 137.74 71.41 C122.14 72.22, 105.07 72, 89.54 70.77 C74.01 69.54, 57.36 67.12, 44.56 64.01 C31.76 60.9, 20.02 56.28, 12.75 52.12 C5.48 47.96, 1.87 43.97, 0.95 39.07 C0.02 34.16, 1.92 27.46, 7.23 22.7 C12.53 17.94, 19.34 14.09, 32.79 10.5 C46.24 6.91, 76.72 2.61, 87.93 1.15 C99.13 -0.32, 99.67 0.98, 100 1.71 M161.99 4.19 C176.72 5.3, 192.2 6.62, 203.39 9.95 C214.57 13.27, 223.5 19.4, 229.09 24.16 C234.67 28.92, 237.94 33.53, 236.89 38.52 C235.83 43.5, 230.51 49.55, 222.76 54.05 C215 58.54, 203.06 62.63, 190.33 65.46 C177.6 68.29, 161.91 69.97, 146.36 71.02 C130.82 72.08, 112.85 72.59, 97.06 71.79 C81.27 71, 64.79 69.02, 51.63 66.26 C38.47 63.51, 26.56 59.77, 18.1 55.27 C9.63 50.78, 2.87 44.17, 0.82 39.28 C-1.23 34.39, 1.43 30.46, 5.77 25.93 C10.12 21.4, 16.6 15.87, 26.89 12.1 C37.17 8.34, 52.67 5.54, 67.5 3.34 C82.33 1.14, 100.17 -0.93, 115.86 -1.08 C131.55 -1.23, 154.16 1.86, 161.65 2.45 C169.13 3.05, 161.28 1.65, 160.75 2.49" stroke="#1e1e1e" stroke-width="2" fill="none"></path></g><g stroke-linecap="round" transform="translate(610.8512794189389 700.5555725097629) rotate(0 118.08035714285734 35.937499999999545)"><path d="M76.68 2.98 C90.25 0.73, 110 -0.4, 126.23 -0.29 C142.45 -0.18, 160.09 1.29, 174.02 3.62 C187.95 5.95, 200.15 9.87, 209.82 13.68 C219.48 17.48, 227.98 21.62, 231.99 26.46 C236 31.3, 236.43 37.95, 233.86 42.72 C231.28 47.48, 225.48 51.06, 216.56 55.04 C207.64 59.03, 194.07 63.98, 180.34 66.62 C166.62 69.26, 149.92 70.3, 134.21 70.9 C118.51 71.5, 101.52 71.5, 86.12 70.21 C70.72 68.92, 54.07 66.38, 41.8 63.17 C29.53 59.97, 19.48 55.43, 12.52 50.97 C5.55 46.52, 0.63 41.27, -0.01 36.43 C-0.64 31.58, 2.74 26.28, 8.71 21.91 C14.67 17.54, 24.05 13.51, 35.78 10.2 C47.5 6.88, 71.31 3.27, 79.08 2.03 C86.85 0.79, 81.61 2.21, 82.39 2.75 M88.44 1.81 C102.65 -0.22, 119.8 -0.81, 135.44 -0.07 C151.07 0.66, 168.67 3.74, 182.25 6.24 C195.83 8.74, 208.33 10.92, 216.9 14.92 C225.47 18.93, 230.97 25.28, 233.67 30.25 C236.37 35.23, 236.9 40.14, 233.09 44.76 C229.29 49.37, 221.09 54.3, 210.86 57.95 C200.62 61.59, 186.32 64.36, 171.69 66.63 C157.06 68.9, 139.01 70.9, 123.08 71.57 C107.14 72.24, 90.7 72.21, 76.07 70.67 C61.43 69.14, 46.56 66.25, 35.27 62.37 C23.97 58.5, 14.34 51.99, 8.3 47.41 C2.26 42.84, -1.53 39.51, -0.98 34.92 C-0.43 30.33, 3.98 24.53, 11.61 19.87 C19.25 15.22, 32.05 10.28, 44.82 6.97 C57.58 3.66, 81.16 1.12, 88.21 0.03 C95.27 -1.05, 86.8 -0.11, 87.14 0.45" stroke="#1e1e1e" stroke-width="2" fill="none"></path></g><g transform="translate(609.8244937046529 861.7609296526198) rotate(0 110.89285714285734 17.96875)"><text x="0" y="25.328750000000017" font-family="Virgil, Segoe UI Emoji" font-size="28.750000000000018px" fill="#1e1e1e" text-anchor="start" style="white-space: pre;" direction="ltr" dominant-baseline="alphabetic">Source Code</text></g><g stroke-linecap="round" transform="translate(1097.2402361246677 10) rotate(0 532.5000000000001 431.1904761904757)"><path d="M32 0 C250.29 -2.83, 468.52 -1.62, 1033 0 M1033 0 C1053.06 -0.03, 1066.15 11.29, 1065 32 M1065 32 C1066.73 245.48, 1066.33 459.04, 1065 830.38 M1065 830.38 C1065.39 849.74, 1053.33 860.99, 1033 862.38 M1033 862.38 C802.38 859.28, 570.84 858.03, 32 862.38 M32 862.38 C9.17 860.69, -1.78 850.84, 0 830.38 M0 830.38 C-3.47 569.41, -3.37 308.17, 0 32 M0 32 C-1.49 9.96, 9.65 0.8, 32 0" stroke="#1e1e1e" stroke-width="2.5" fill="none" stroke-dasharray="8 10"></path></g><g transform="translate(1102.2402361246677 15) rotate(0 67.28402709960938 22.5)"><text x="0" y="31.716" font-family="Virgil, Segoe UI Emoji" font-size="36px" fill="#1971c2" text-anchor="start" style="white-space: pre;" direction="ltr" dominant-baseline="alphabetic">oHacker</text></g><g stroke-linecap="round" transform="translate(1138.487333840708 198.95827217230544) rotate(0 113.68916797488225 44.13760779902441)"><path d="M22.07 0 C77.4 0.42, 133.71 2.52, 205.31 0 M22.07 0 C84.87 -0.15, 146.13 -1.55, 205.31 0 M205.31 0 C219.16 -0.47, 226.21 8.17, 227.38 22.07 M205.31 0 C220.54 2.23, 225.98 7.03, 227.38 22.07 M227.38 22.07 C229.17 34.73, 228.18 49.74, 227.38 66.21 M227.38 22.07 C228.38 37.11, 228.23 51.29, 227.38 66.21 M227.38 66.21 C227.24 81.25, 220.93 87.23, 205.31 88.28 M227.38 66.21 C228.68 80.15, 219.78 87.05, 205.31 88.28 M205.31 88.28 C153.4 89.28, 104.87 89.34, 22.07 88.28 M205.31 88.28 C164.17 86.94, 121.66 85.99, 22.07 88.28 M22.07 88.28 C6.38 86.73, 1.17 80.86, 0 66.21 M22.07 88.28 C9.04 89.5, -0.29 81.95, 0 66.21 M0 66.21 C0.99 48.1, 2.05 32.82, 0 22.07 M0 66.21 C-0.13 56.6, 0.62 46.2, 0 22.07 M0 22.07 C0.2 7.07, 7.2 -1.18, 22.07 0 M0 22.07 C1.22 7.06, 5.4 -2.23, 22.07 0" stroke="#1e1e1e" stroke-width="2" fill="none"></path></g><g transform="translate(1202.6431689908834 230.59587997132985) rotate(0 49.53333282470703 12.5)"><text x="49.53333282470703" y="17.619999999999997" font-family="Virgil, Segoe UI Emoji" font-size="20px" fill="#1e1e1e" text-anchor="middle" style="white-space: pre;" direction="ltr" dominant-baseline="alphabetic">LFI Agent</text></g><g stroke-linecap="round" transform="translate(1146.84683148592 102.19505507444228) rotate(0 112.85321821036109 39.04480689913771)"><path d="M19.52 0 C73.82 -1.39, 126.04 0.1, 206.18 0 M19.52 0 C86.31 -0.42, 153.7 -1.11, 206.18 0 M206.18 0 C220.33 -0.67, 225.49 5.44, 225.71 19.52 M206.18 0 C218.73 -2, 227.1 5.69, 225.71 19.52 M225.71 19.52 C224.6 30.43, 224.14 43.01, 225.71 58.57 M225.71 19.52 C224.87 32.19, 225.95 46.38, 225.71 58.57 M225.71 58.57 C227.17 72.65, 218.95 78.99, 206.18 78.09 M225.71 58.57 C227.38 69.68, 217.15 78.8, 206.18 78.09 M206.18 78.09 C164.14 76.9, 123.07 77.05, 19.52 78.09 M206.18 78.09 C137.99 78.94, 69.52 78.5, 19.52 78.09 M19.52 78.09 C7.57 77.83, -1.7 69.64, 0 58.57 M19.52 78.09 C6.31 78.15, -2.03 72.84, 0 58.57 M0 58.57 C0.38 48.72, 0.5 39.73, 0 19.52 M0 58.57 C-0.09 48.82, 0.8 40.78, 0 19.52 M0 19.52 C1.77 8.16, 7.43 -1.97, 19.52 0 M0 19.52 C0.5 4.9, 8.8 -0.17, 19.52 0" stroke="#1e1e1e" stroke-width="2" fill="none"></path></g><g transform="translate(1161.291716871574 128.73986197358045) rotate(0 98.40833282470703 12.5)"><text x="98.40833282470703" y="17.619999999999997" font-family="Virgil, Segoe UI Emoji" font-size="20px" fill="#1e1e1e" text-anchor="middle" style="white-space: pre;" direction="ltr" dominant-baseline="alphabetic">SQL Injection Agent</text></g><g stroke-linecap="round" transform="translate(1683.5265803085272 557.1519354643933) rotate(0 192.2684458398745 82.75801462317213)"><path d="M32 0 C100.73 1.51, 166.16 1.31, 352.54 0 M32 0 C100.74 -1.1, 168.93 -1.57, 352.54 0 M352.54 0 C373.71 -1.18, 385.6 10.41, 384.54 32 M352.54 0 C371.92 -2.23, 384.34 10.73, 384.54 32 M384.54 32 C383.2 52.77, 385.1 74.98, 384.54 133.52 M384.54 32 C385.35 62.68, 385.04 93.59, 384.54 133.52 M384.54 133.52 C386.41 155.76, 375.64 167.16, 352.54 165.52 M384.54 133.52 C385.59 152.58, 374.37 163.91, 352.54 165.52 M352.54 165.52 C224.8 165.07, 95.17 163.36, 32 165.52 M352.54 165.52 C249.21 163.85, 146.76 164.6, 32 165.52 M32 165.52 C10.77 167.1, 0.91 155.46, 0 133.52 M32 165.52 C8.45 164.78, 1.88 156.7, 0 133.52 M0 133.52 C-0.09 102.74, -1.12 67.12, 0 32 M0 133.52 C0.74 112.53, 1.86 92.26, 0 32 M0 32 C0.44 10.8, 9.1 1.77, 32 0 M0 32 C-1.8 12.24, 12.39 1.01, 32 0" stroke="#1e1e1e" stroke-width="2" fill="none"></path></g><g transform="translate(1719.253354395472 604.9099500875654) rotate(0 156.5416717529297 35)"><text x="156.5416717529297" y="24.668" font-family="Virgil, Segoe UI Emoji" font-size="28px" fill="#1e1e1e" text-anchor="middle" style="white-space: pre;" direction="ltr" dominant-baseline="alphabetic">DeepSecurity Research</text><text x="156.5416717529297" y="59.668" font-family="Virgil, Segoe UI Emoji" font-size="28px" fill="#1e1e1e" text-anchor="middle" style="white-space: pre;" direction="ltr" dominant-baseline="alphabetic">Agent</text></g><g stroke-linecap="round" transform="translate(1225.4261093509124 566.0643370391963) rotate(0 192.26844583987452 82.75801462317213)"><path d="M32 0 C125.72 -2.58, 221.03 -1.42, 352.54 0 M32 0 C125.14 0.22, 218.1 -0.84, 352.54 0 M352.54 0 C374.72 1.58, 383.02 9.54, 384.54 32 M352.54 0 C372.33 1.48, 382.96 11.18, 384.54 32 M384.54 32 C385.7 66.71, 384.1 102.22, 384.54 133.52 M384.54 32 C384.59 63.01, 383.53 92.47, 384.54 133.52 M384.54 133.52 C383.93 154.58, 373.04 165.43, 352.54 165.52 M384.54 133.52 C382.4 153.5, 375.41 163.73, 352.54 165.52 M352.54 165.52 C237.23 166.41, 124.88 167.8, 32 165.52 M352.54 165.52 C243.82 166.36, 134.29 166.59, 32 165.52 M32 165.52 C9.17 163.52, 1.72 152.92, 0 133.52 M32 165.52 C11.76 164.38, -1.04 154.96, 0 133.52 M0 133.52 C-1.94 108.76, -1.38 85.59, 0 32 M0 133.52 C1.22 99.22, 1.42 63.99, 0 32 M0 32 C-1.15 12.09, 10.94 -0.19, 32 0 M0 32 C-0.69 10.74, 11.89 -0.39, 32 0" stroke="#1e1e1e" stroke-width="2" fill="none"></path></g><g transform="translate(1254.9862269437165 631.3223516623684) rotate(0 162.7083282470703 17.5)"><text x="162.7083282470703" y="24.668" font-family="Virgil, Segoe UI Emoji" font-size="28px" fill="#1e1e1e" text-anchor="middle" style="white-space: pre;" direction="ltr" dominant-baseline="alphabetic">Security Patches Agent</text></g><g stroke-linecap="round" transform="translate(1138.4977995654594 300.78335653675913) rotate(0 113.68916797488237 44.13760779902441)"><path d="M22.07 0 C74.02 0.06, 121.21 0.01, 205.31 0 M205.31 0 C219.32 -0.42, 229.18 7.07, 227.38 22.07 M227.38 22.07 C227.59 38.09, 225.46 55.91, 227.38 66.21 M227.38 66.21 C226.14 80.48, 219.9 88.52, 205.31 88.28 M205.31 88.28 C166 90.52, 130.02 90.23, 22.07 88.28 M22.07 88.28 C8.71 87.23, -1.36 81.15, 0 66.21 M0 66.21 C1.36 57.19, -0.62 48.72, 0 22.07 M0 22.07 C-0.46 7.15, 8.31 0.75, 22.07 0" stroke="#1e1e1e" stroke-width="2.5" fill="none" stroke-dasharray="1.5 8"></path></g><g transform="translate(1166.9170548206152 332.42096433578354) rotate(0 85.26991271972656 12.5)"><text x="85.26991271972656" y="17.619999999999997" font-family="Virgil, Segoe UI Emoji" font-size="20px" fill="#1e1e1e" text-anchor="middle" style="white-space: pre;" direction="ltr" dominant-baseline="alphabetic">Additional Agents</text></g><g stroke-linecap="round"><g transform="translate(716.6760109015843 688.4203749795261) rotate(0 2.7698362112492987 -94.59751326568676)"><path d="M-0.73 -0.32 C0.42 -31.79, 5.51 -156.69, 6.4 -188.17 M1.1 -1.54 C2.2 -33.37, 4.92 -158.69, 5.9 -189.76" stroke="#1e1e1e" stroke-width="2" fill="none"></path></g><g transform="translate(716.6760109015843 688.4203749795261) rotate(0 2.7698362112492987 -94.59751326568676)"><path d="M-8.36 -24.13 C-6.78 -16.42, -2.54 -13.2, -0.73 -0.32 M-8.36 -24.13 C-7.28 -16.23, -3.03 -11.04, -0.73 -0.32" stroke="#1e1e1e" stroke-width="2" fill="none"></path></g><g transform="translate(716.6760109015843 688.4203749795261) rotate(0 2.7698362112492987 -94.59751326568676)"><path d="M8.73 -23.47 C5.83 -16.03, 5.59 -12.98, -0.73 -0.32 M8.73 -23.47 C4.75 -15.76, 3.95 -10.77, -0.73 -0.32" stroke="#1e1e1e" stroke-width="2" fill="none"></path></g><g transform="translate(716.6760109015843 688.4203749795261) rotate(0 2.7698362112492987 -94.59751326568676)"><path d="M13.84 -166.05 C11.1 -170.88, 11.27 -180.1, 5.9 -189.76 M13.84 -166.05 C10.68 -172.21, 10.32 -181.08, 5.9 -189.76" stroke="#1e1e1e" stroke-width="2" fill="none"></path></g><g transform="translate(716.6760109015843 688.4203749795261) rotate(0 2.7698362112492987 -94.59751326568676)"><path d="M-3.26 -166.5 C-1.51 -171.1, 3.13 -180.21, 5.9 -189.76 M-3.26 -166.5 C-1.36 -172.52, 3.34 -181.26, 5.9 -189.76" stroke="#1e1e1e" stroke-width="2" fill="none"></path></g></g><mask></mask><g stroke-linecap="round"><g transform="translate(1385.9284641389813 132.751860473767) rotate(0 178.89324960753538 37.34720659917457)"><path d="M-0.52 1.12 C59.19 13.5, 298.23 62.42, 358.02 74.74 M1.4 0.66 C61 13.2, 297.81 64.27, 357.19 76.31" stroke="#1e1e1e" stroke-width="2" fill="none"></path></g><g transform="translate(1385.9284641389813 132.751860473767) rotate(0 178.89324960753538 37.34720659917457)"><path d="M332.44 79.85 C341.15 79.35, 346.23 78.7, 357.19 76.31 M332.44 79.85 C340.81 78.81, 349.75 76.71, 357.19 76.31" stroke="#1e1e1e" stroke-width="2" fill="none"></path></g><g transform="translate(1385.9284641389813 132.751860473767) rotate(0 178.89324960753538 37.34720659917457)"><path d="M335.95 63.11 C343.75 67.24, 347.86 71.23, 357.19 76.31 M335.95 63.11 C343.02 67.6, 350.8 71.04, 357.19 76.31" stroke="#1e1e1e" stroke-width="2" fill="none"></path></g></g><mask></mask><g stroke-linecap="round"><g transform="translate(1379.240866022812 249.8862811711797) rotate(0 176.38540031397167 -11.883202099737446)"><path d="M0.96 0.73 C59.76 -3.56, 293.32 -20.46, 351.78 -24.59 M0 0.07 C59.25 -3.58, 294.96 -19.66, 353.98 -23.49" stroke="#1e1e1e" stroke-width="2" fill="none"></path></g><g transform="translate(1379.240866022812 249.8862811711797) rotate(0 176.38540031397167 -11.883202099737446)"><path d="M331.1 -13.4 C337.16 -17.4, 339.5 -19.66, 353.98 -23.49 M331.1 -13.4 C338.15 -15.79, 342.93 -19.93, 353.98 -23.49" stroke="#1e1e1e" stroke-width="2" fill="none"></path></g><g transform="translate(1379.240866022812 249.8862811711797) rotate(0 176.38540031397167 -11.883202099737446)"><path d="M329.97 -30.46 C336.43 -30.79, 339.01 -29.37, 353.98 -23.49 M329.97 -30.46 C337.22 -28.19, 342.31 -27.67, 353.98 -23.49" stroke="#1e1e1e" stroke-width="2" fill="none"></path></g></g><mask></mask><g stroke-linecap="round"><g transform="translate(1379.5476479939257 357.1882690165821) rotate(0 173.72416003485125 -57.89499467260703)"><path d="M-0.49 0.63 C57.27 -18.81, 288.25 -97.23, 346.43 -116.76 M1.45 -0.08 C59.58 -19.4, 290.78 -96.47, 348.6 -115.74" stroke="#1e1e1e" stroke-width="2" fill="none"></path></g><g transform="translate(1379.5476479939257 357.1882690165821) rotate(0 173.72416003485125 -57.89499467260703)"><path d="M329.02 -100.2 C335.78 -106.34, 338.79 -107.29, 348.6 -115.74 M329.02 -100.2 C333.19 -104.06, 337.3 -106.7, 348.6 -115.74" stroke="#1e1e1e" stroke-width="2" fill="none"></path></g><g transform="translate(1379.5476479939257 357.1882690165821) rotate(0 173.72416003485125 -57.89499467260703)"><path d="M323.61 -116.42 C331.93 -117.82, 336.51 -114.06, 348.6 -115.74 M323.61 -116.42 C329.2 -116.51, 334.57 -115.34, 348.6 -115.74" stroke="#1e1e1e" stroke-width="2" fill="none"></path></g></g><mask></mask><g stroke-linecap="round" transform="translate(1743.3434301253753 131.05426017380432) rotate(0 136.2598116169545 82.33361454818123)"><path d="M32 0 C107.25 -1.18, 177.6 1.71, 240.52 0 M240.52 0 C260.91 1.83, 273.02 8.75, 272.52 32 M272.52 32 C272.59 61.34, 271.48 92.64, 272.52 132.67 M272.52 132.67 C271.94 152.96, 263.33 166.46, 240.52 164.67 M240.52 164.67 C172.96 166.68, 102.92 165.94, 32 164.67 M32 164.67 C10.48 163.73, 0.92 154.39, 0 132.67 M0 132.67 C-1.11 96.15, -2.29 59.77, 0 32 M0 32 C1.15 9.18, 9.96 0.06, 32 0" stroke="#f08c00" stroke-width="2.5" fill="none" stroke-dasharray="8 10"></path></g><g transform="translate(1790.1865776187947 160.887874721986) rotate(0 89.41666412353516 52.5)"><text x="89.41666412353516" y="24.668" font-family="Virgil, Segoe UI Emoji" font-size="28px" fill="#1e1e1e" text-anchor="middle" style="white-space: pre;" direction="ltr" dominant-baseline="alphabetic">Summaries of</text><text x="89.41666412353516" y="59.668" font-family="Virgil, Segoe UI Emoji" font-size="28px" fill="#1e1e1e" text-anchor="middle" style="white-space: pre;" direction="ltr" dominant-baseline="alphabetic">detected</text><text x="89.41666412353516" y="94.668" font-family="Virgil, Segoe UI Emoji" font-size="28px" fill="#1e1e1e" text-anchor="middle" style="white-space: pre;" direction="ltr" dominant-baseline="alphabetic">vulnerablities</text></g><g stroke-linecap="round"><g transform="translate(1873.9503130386856 302.10744488988075) rotate(0 -223.90978335402332 130.433743605794)"><path d="M-0.94 -0.45 C-75.72 43.06, -374.47 217.24, -448.93 260.65 M0.77 -1.74 C-73.63 41.99, -371.95 218.3, -446.8 262.07" stroke="#1e1e1e" stroke-width="2" fill="none"></path></g><g transform="translate(1873.9503130386856 302.10744488988075) rotate(0 -223.90978335402332 130.433743605794)"><path d="M-430.88 242.78 C-436.18 246.23, -440.26 253.77, -446.8 262.07 M-430.88 242.78 C-435.32 247.63, -437.94 250.63, -446.8 262.07" stroke="#1e1e1e" stroke-width="2" fill="none"></path></g><g transform="translate(1873.9503130386856 302.10744488988075) rotate(0 -223.90978335402332 130.433743605794)"><path d="M-422.21 257.52 C-429.89 256.76, -436.41 260.16, -446.8 262.07 M-422.21 257.52 C-428.47 259.06, -433.07 258.7, -446.8 262.07" stroke="#1e1e1e" stroke-width="2" fill="none"></path></g></g><mask></mask><g stroke-linecap="round"><g transform="translate(1872.0127856680522 301.4562994040616) rotate(0 8.075214581605223 126.92214869239433)"><path d="M-0.88 -0.04 C1.93 42.19, 12.82 211.86, 15.74 254.18 M0.86 -1.11 C3.57 40.68, 12.04 209.52, 14.58 252.24" stroke="#1e1e1e" stroke-width="2" fill="none"></path></g><g transform="translate(1872.0127856680522 301.4562994040616) rotate(0 8.075214581605223 126.92214869239433)"><path d="M4.77 229.24 C6.87 233.4, 9.54 239.66, 14.58 252.24 M4.77 229.24 C8.77 235.58, 10.85 242.67, 14.58 252.24" stroke="#1e1e1e" stroke-width="2" fill="none"></path></g><g transform="translate(1872.0127856680522 301.4562994040616) rotate(0 8.075214581605223 126.92214869239433)"><path d="M21.84 228.31 C20.42 232.53, 19.55 238.99, 14.58 252.24 M21.84 228.31 C20.7 234.99, 17.63 242.36, 14.58 252.24" stroke="#1e1e1e" stroke-width="2" fill="none"></path></g></g><mask></mask><g mask="url(#mask-AHIcRJ9uNm74rQmyr0JD5)" stroke-linecap="round"><g transform="translate(1218.6774721297506 666.0769543431798) rotate(0 -182.45019919055198 57.62279520975494)"><path d="M-0.06 0.23 C-60.88 19.44, -304.71 94.95, -365.68 114.18 M-1.55 -0.7 C-61.91 18.71, -303.05 96.13, -363.38 115.15" stroke="#1e1e1e" stroke-width="2" fill="none"></path></g><g transform="translate(1218.6774721297506 666.0769543431798) rotate(0 -182.45019919055198 57.62279520975494)"><path d="M-343.59 99.87 C-347.97 102.13, -354.75 105.36, -363.38 115.15 M-343.59 99.87 C-349.25 104.08, -356.84 109.56, -363.38 115.15" stroke="#1e1e1e" stroke-width="2" fill="none"></path></g><g transform="translate(1218.6774721297506 666.0769543431798) rotate(0 -182.45019919055198 57.62279520975494)"><path d="M-338.4 116.17 C-343.85 114.62, -351.84 114.04, -363.38 115.15 M-338.4 116.17 C-345.88 114.97, -355.17 115.08, -363.38 115.15" stroke="#1e1e1e" stroke-width="2" fill="none"></path></g></g><mask id="mask-AHIcRJ9uNm74rQmyr0JD5"><rect x="0" y="0" fill="#fff" width="1683.5778705108546" height="881.3225447626896"></rect><rect x="922.2522744650776" y="711.1997495529349" fill="#000" width="227.9499969482422" height="25" opacity="1"></rect></mask><g transform="translate(922.2522744650776 711.1997495529349) rotate(0 113.5534447390587 12.104884221460452)"><text x="113.9749984741211" y="17.619999999999997" font-family="Virgil, Segoe UI Emoji" font-size="20px" fill="#1e1e1e" text-anchor="middle" style="white-space: pre;" direction="ltr" dominant-baseline="alphabetic">Suggest security patch</text></g><g stroke-linecap="round"><g transform="translate(1742.7035540497432 726.2000204879187) rotate(0 -439.7780274473993 176.30098429071222)"><path d="M0.77 0.26 C-145.88 59.23, -733.39 293.94, -880.09 352.64 M-0.29 -0.65 C-147.13 58.63, -734.68 295.13, -881.32 354.19" stroke="#1e1e1e" stroke-width="2" fill="none"></path></g><g transform="translate(1742.7035540497432 726.2000204879187) rotate(0 -439.7780274473993 176.30098429071222)"><path d="M-862.73 337.49 C-867.76 341.48, -873.45 347.36, -881.32 354.19 M-862.73 337.49 C-868.77 343.31, -874.29 348.18, -881.32 354.19" stroke="#1e1e1e" stroke-width="2" fill="none"></path></g><g transform="translate(1742.7035540497432 726.2000204879187) rotate(0 -439.7780274473993 176.30098429071222)"><path d="M-856.34 353.35 C-863.05 352.86, -870.56 354.2, -881.32 354.19 M-856.34 353.35 C-864.14 354.65, -871.5 354.94, -881.32 354.19" stroke="#1e1e1e" stroke-width="2" fill="none"></path></g></g><mask></mask><g stroke-linecap="round" transform="translate(593.1687397363994 967.3174772716684) rotate(0 131.42857142857144 108.45238095238096)"><path d="M32 0 C95.15 2.24, 158.34 -0.3, 230.86 0 M230.86 0 C253.58 -0.05, 264.74 12.16, 262.86 32 M262.86 32 C261.64 65.86, 263.91 101.72, 262.86 184.9 M262.86 184.9 C262.54 206.75, 250.26 217.41, 230.86 216.9 M230.86 216.9 C161.66 215.86, 96.85 214.78, 32 216.9 M32 216.9 C9.86 218.5, 0.91 207.39, 0 184.9 M0 184.9 C0.77 145.48, 2.11 105.88, 0 32 M0 32 C-0.76 11.46, 12.42 0.15, 32 0" stroke="#f08c00" stroke-width="2.5" fill="none" stroke-dasharray="8 10"></path></g><g transform="translate(608.6556455155567 1030.7698582240491) rotate(0 115.94166564941406 45)"><text x="115.94166564941406" y="31.716" font-family="Virgil, Segoe UI Emoji" font-size="36px" fill="#1e1e1e" text-anchor="middle" style="white-space: pre;" direction="ltr" dominant-baseline="alphabetic">Cybersecurity</text><text x="115.94166564941406" y="76.71600000000001" font-family="Virgil, Segoe UI Emoji" font-size="36px" fill="#1e1e1e" text-anchor="middle" style="white-space: pre;" direction="ltr" dominant-baseline="alphabetic">Report </text></g><g stroke-linecap="round" transform="translate(118.9693097714844 441.7077044237976) rotate(0 76.70666789983557 84.16994457846295)"><path d="M52.83 4.88 C61.8 0.32, 74.31 -1.03, 84.6 -0.08 C94.88 0.86, 105.42 4.53, 114.54 10.53 C123.66 16.53, 133.27 26.66, 139.33 35.9 C145.39 45.14, 148.7 54.98, 150.91 65.98 C153.11 76.97, 154.61 90.45, 152.56 101.87 C150.51 113.3, 144.74 125.26, 138.58 134.51 C132.42 143.75, 124.78 151.93, 115.59 157.35 C106.4 162.77, 94.07 165.96, 83.46 167.03 C72.84 168.1, 61.66 167.05, 51.89 163.78 C42.13 160.5, 32.35 154.88, 24.87 147.38 C17.38 139.87, 11.13 129.46, 6.96 118.77 C2.8 108.07, -0.15 94.82, -0.12 83.21 C-0.09 71.59, 2.92 59.52, 7.17 49.09 C11.41 38.66, 16.94 28.28, 25.35 20.64 C33.76 12.99, 51.53 6.06, 57.61 3.22 C63.68 0.39, 61.48 2.26, 61.8 3.62 M44.25 9.15 C52.58 3.16, 63.19 -0.2, 73.7 -0.62 C84.22 -1.04, 97.42 2.01, 107.34 6.63 C117.25 11.25, 126.47 18.99, 133.19 27.09 C139.91 35.19, 144.38 44.36, 147.66 55.23 C150.95 66.11, 153.38 80.65, 152.89 92.35 C152.41 104.06, 149.48 115.64, 144.74 125.45 C140.01 135.25, 132.77 144.28, 124.48 151.2 C116.2 158.12, 105.3 164.25, 95.02 166.99 C84.75 169.73, 73.07 169.82, 62.85 167.62 C52.62 165.41, 42.31 160.37, 33.67 153.74 C25.03 147.12, 16.48 137.51, 11.01 127.88 C5.55 118.25, 1.95 107.34, 0.88 95.95 C-0.2 84.55, 1.73 70.71, 4.58 59.51 C7.44 48.3, 11.58 37.26, 18.02 28.71 C24.46 20.17, 39.06 11.2, 43.23 8.26 C47.39 5.32, 42.55 9.99, 43.03 11.07" stroke="#000000" stroke-width="2" fill="none"></path></g><g stroke-linecap="round"><g transform="translate(173.30455457427843 611.3423648457738) rotate(0 -4.322356901298463 98.29237564097957)"><path d="M-0.75 0.09 C-2.25 32.85, -8 163.39, -9.15 196.06 M1.06 -0.9 C-0.63 32.05, -8.87 164.31, -10.36 197.33" stroke="#000000" stroke-width="2" fill="none"></path></g></g><mask></mask><g stroke-linecap="round"><g transform="translate(163.2955115012537 805.5423826365432) rotate(0 26.817438084794958 54.72227600119436)"><path d="M-0.5 -0.52 C8.73 17.62, 45.75 90.79, 54.66 108.96 M1.44 1.82 C10.67 20.12, 45.85 92.32, 54.24 110.25" stroke="#000000" stroke-width="2" fill="none"></path></g></g><mask></mask><g stroke-linecap="round"><g transform="translate(160.6275859582479 801.5174409380534) rotate(0 -43.208421425261804 49.492593052460506)"><path d="M1.02 -0.48 C-13.41 15.95, -72.36 81.42, -87.11 98.08 M0.1 -1.78 C-13.9 14.83, -70.55 82.62, -84.76 99.14" stroke="#000000" stroke-width="2" fill="none"></path></g></g><mask></mask><g stroke-linecap="round"><g transform="translate(93.13443866530315 637.237101466867) rotate(0 37.79587656822491 36.27810238914299)"><path d="M-0.69 -0.9 C11.56 11.35, 61.61 60.97, 74.52 73.04 M1.14 1.24 C13.66 13.17, 64.09 59.34, 76.66 71.17" stroke="#000000" stroke-width="2" fill="none"></path></g></g><mask></mask><g stroke-linecap="round"><g transform="translate(163.0490048405004 704.931411366887) rotate(0 54.46664621998889 -30.71842958098432)"><path d="M-1.08 0.48 C17.39 -9.78, 91.95 -52.36, 110.09 -62.5 M0.56 -0.31 C19.03 -10.38, 91.5 -51.21, 109.75 -61.52" stroke="#000000" stroke-width="2" fill="none"></path></g></g><mask></mask><g stroke-linecap="round"><g transform="translate(135.44956049364237 457.98263684965514) rotate(0 16.186729577643746 -23.815456749584428)" fill-rule="evenodd"><path d="M-1.4 -0.57 C10.26 -12.08, 45.19 -68.03, 68.33 -68.02 C91.47 -68.01, 127.3 -13.82, 137.47 -0.49 C147.63 12.84, 131.58 8.74, 129.32 11.94 C127.06 15.14, 162.75 19.02, 123.93 18.7 C85.12 18.38, -65.74 13.59, -103.57 10 C-141.4 6.42, -120.43 -0.78, -103.06 -2.82 C-85.69 -4.86, -17.24 -2.55, 0.66 -2.22" stroke="none" stroke-width="0" fill="#4c6ef5" fill-rule="evenodd"></path><path d="M1.15 -1.06 C12.84 -12.38, 46.57 -67.58, 69.06 -67.44 C91.55 -67.31, 126.06 -13.53, 136.1 -0.24 C146.13 13.06, 131.49 9, 129.27 12.32 C127.04 15.64, 161.59 20.35, 122.76 19.68 C83.93 19, -65.89 12.34, -103.73 8.25 C-141.56 4.17, -122.12 -3.35, -104.25 -4.83 C-86.38 -6.31, -14.42 -1.22, 3.49 -0.63 M0.3 0.99 C12.43 -10.68, 48.66 -69.02, 71.15 -69.01 C93.65 -69, 125.48 -12.14, 135.28 1.07 C145.07 14.28, 132.22 7.19, 129.91 10.25 C127.59 13.31, 160.17 19.42, 121.37 19.44 C82.58 19.45, -65.34 14.03, -102.87 10.34 C-140.4 6.64, -121.48 -0.87, -103.83 -2.71 C-86.19 -4.55, -14.63 -0.68, 3 -0.69" stroke="#000000" stroke-width="1" fill="none"></path></g></g><mask></mask><g stroke-linecap="round"><g transform="translate(208.36363518488952 397.53253682839204) rotate(0 11.719615437236143 -35.53390493837014)"><path d="M0 0 C-0.29 -5.86, 6.03 -29.31, -1.76 -35.19 C-9.56 -41.06, -35.27 -29.26, -46.75 -35.24 C-58.24 -41.22, -86.48 -74.25, -70.66 -71.07 C-54.84 -67.89, 20.71 -21.11, 48.17 -16.15 C75.63 -11.2, 101.34 -38.68, 94.1 -41.32 C86.86 -43.95, 19.61 -33.53, 4.72 -31.97 M0 0 C-0.29 -5.86, 6.03 -29.31, -1.76 -35.19 C-9.56 -41.06, -35.27 -29.26, -46.75 -35.24 C-58.24 -41.22, -86.48 -74.25, -70.66 -71.07 C-54.84 -67.89, 20.71 -21.11, 48.17 -16.15 C75.63 -11.2, 101.34 -38.68, 94.1 -41.32 C86.86 -43.95, 19.61 -33.53, 4.72 -31.97" stroke="#000000" stroke-width="1" fill="none"></path></g></g><mask></mask><g transform="translate(37.21635878401867 923.74604870024) rotate(0 88.57142857142844 35)"><text x="88.57142857142844" y="24.668" font-family="Virgil, Segoe UI Emoji" font-size="28px" fill="#1e1e1e" text-anchor="middle" style="white-space: pre;" direction="ltr" dominant-baseline="alphabetic">VIBE</text><text x="88.57142857142844" y="59.668" font-family="Virgil, Segoe UI Emoji" font-size="28px" fill="#1e1e1e" text-anchor="middle" style="white-space: pre;" direction="ltr" dominant-baseline="alphabetic">CODER</text></g><g stroke-linecap="round"><g transform="translate(254.35921592687646 672.3174772716684) rotate(0 146.44189382685147 -109.85113393729489)"><path d="M0.72 1.04 C49.89 -35.85, 245.47 -183.67, 294.02 -220.65" stroke="#1e1e1e" stroke-width="2.5" fill="none" stroke-dasharray="8 10"></path></g><g transform="translate(254.35921592687646 672.3174772716684) rotate(0 146.44189382685147 -109.85113393729489)"><path d="M280.47 -199.65 C284.99 -202.35, 284.58 -210.22, 294.02 -220.65" stroke="#1e1e1e" stroke-width="2.5" fill="none"></path></g><g transform="translate(254.35921592687646 672.3174772716684) rotate(0 146.44189382685147 -109.85113393729489)"><path d="M270.13 -213.27 C276.96 -213.11, 278.77 -218.06, 294.02 -220.65" stroke="#1e1e1e" stroke-width="2.5" fill="none"></path></g></g><mask></mask><g stroke-linecap="round"><g transform="translate(259.359215926876 687.3174772716684) rotate(0 172.5 40)"><path d="M0.37 -0.75 C58.12 12.64, 288.07 66.95, 345.67 80.48" stroke="#1e1e1e" stroke-width="2.5" fill="none" stroke-dasharray="8 10"></path></g><g transform="translate(259.359215926876 687.3174772716684) rotate(0 172.5 40)"><path d="M320.84 83.42 C325.37 83.77, 333.22 83.56, 345.67 80.48" stroke="#1e1e1e" stroke-width="2.5" fill="none"></path></g><g transform="translate(259.359215926876 687.3174772716684) rotate(0 172.5 40)"><path d="M324.76 66.77 C328.4 71.02, 335.33 74.69, 345.67 80.48" stroke="#1e1e1e" stroke-width="2.5" fill="none"></path></g></g><mask></mask><g stroke-linecap="round"><g transform="translate(254.359215926876 685.6508106050014) rotate(0 163.33333333333337 141.66666666666697)"><path d="M0.01 0.31 C54.56 47.39, 272.16 235.45, 326.78 282.58" stroke="#1e1e1e" stroke-width="2.5" fill="none" stroke-dasharray="8 10"></path></g><g transform="translate(254.359215926876 685.6508106050014) rotate(0 163.33333333333337 141.66666666666697)"><path d="M303.42 273.69 C309.94 276.17, 314.16 280.06, 326.78 282.58" stroke="#1e1e1e" stroke-width="2.5" fill="none"></path></g><g transform="translate(254.359215926876 685.6508106050014) rotate(0 163.33333333333337 141.66666666666697)"><path d="M314.59 260.75 C318.25 266.55, 319.61 273.77, 326.78 282.58" stroke="#1e1e1e" stroke-width="2.5" fill="none"></path></g></g><mask></mask></svg>