<svg version="1.1" xmlns="http://www.w3.org/2000/svg" viewBox="0 0 364.28571428571445 280.7142857142853" width="364.28571428571445" height="280.7142857142853"><!-- svg-source:excalidraw --><metadata></metadata><defs><style class="style-fonts">
      @font-face { font-family: Virgil; src: url(https://esm.sh/@excalidraw/excalidraw/dist/prod/fonts/Virgil/Virgil-Regular.woff2); }</style></defs><rect x="0" y="0" width="364.28571428571445" height="280.7142857142853" fill="#ffffff"></rect><g stroke-linecap="round" transform="translate(10 10) rotate(0 172.14285714285722 130.35714285714266)"><path d="M32 0 C114.23 -0.61, 198.29 -1.5, 312.29 0 M32 0 C97.56 2.62, 162.75 1.94, 312.29 0 M312.29 0 C333.03 -0.7, 343 9.53, 344.29 32 M312.29 0 C333.44 0.1, 342.91 10.36, 344.29 32 M344.29 32 C346.22 83.89, 345.93 137.75, 344.29 228.71 M344.29 32 C343.89 102.27, 343.46 172.26, 344.29 228.71 M344.29 228.71 C343.48 250, 335.08 262.12, 312.29 260.71 M344.29 228.71 C342.79 251.87, 331.65 261.91, 312.29 260.71 M312.29 260.71 C233.42 260.88, 153.37 262.55, 32 260.71 M312.29 260.71 C250.96 261.56, 190.49 261.61, 32 260.71 M32 260.71 C11.16 261.71, -1.4 250.45, 0 228.71 M32 260.71 C8.59 262.96, -2.19 248.8, 0 228.71 M0 228.71 C-3.02 174.81, -3.71 124.63, 0 32 M0 228.71 C0.4 165.19, 0.04 100.31, 0 32 M0 32 C-1.23 9.56, 8.8 -0.3, 32 0 M0 32 C1.79 11.5, 12.24 -1.28, 32 0" stroke="#1e1e1e" stroke-width="2" fill="none"></path></g><g transform="translate(115.99284035818914 117.85714285714312) rotate(0 66.15001678466797 22.5)"><text x="66.15001678466797" y="31.716" font-family="Virgil, Segoe UI Emoji" font-size="36px" fill="#1e1e1e" text-anchor="middle" style="white-space: pre;" direction="ltr" dominant-baseline="alphabetic">Website</text></g></svg>